<svg width="1635.9" height="91.401" viewBox="0 0 1635.9 91.401" xmlns="http://www.w3.org/2000/svg"><g id="svgGroup" stroke-linecap="round" fill-rule="evenodd" font-size="9pt" stroke="#000" stroke-width="0.25mm" fill="#000" style="stroke:#000;stroke-width:0.25mm;fill:#000"><path d="M 1207.5 33.201 L 1207.5 71.401 L 1199.7 71.401 L 1199.7 35.801 A 12.565 12.565 0 0 0 1199.466 33.304 Q 1199.088 31.44 1198.1 30.051 Q 1196.533 27.847 1193.143 27.802 A 10.707 10.707 0 0 0 1193 27.801 A 7.201 7.201 0 0 0 1190.266 28.304 A 6.655 6.655 0 0 0 1187.65 30.251 Q 1185.6 32.701 1185.6 37.801 L 1185.6 71.401 L 1177.8 71.401 L 1177.8 35.401 A 9.946 9.946 0 0 0 1177.503 32.909 A 7.44 7.44 0 0 0 1176 29.951 A 5.842 5.842 0 0 0 1171.752 27.82 A 7.926 7.926 0 0 0 1171.2 27.801 A 7.938 7.938 0 0 0 1168.779 28.151 A 6.184 6.184 0 0 0 1165.65 30.401 Q 1163.7 33.001 1163.7 37.201 L 1163.7 71.401 L 1155.9 71.401 L 1155.9 21.801 L 1163.7 21.801 L 1163.7 27.201 L 1164.9 27.201 A 12.935 12.935 0 0 1 1166.099 24.749 Q 1167.109 23.162 1168.511 22.179 A 8.144 8.144 0 0 1 1168.7 22.051 A 9.952 9.952 0 0 1 1173.006 20.498 A 12.787 12.787 0 0 1 1174.6 20.401 A 11.205 11.205 0 0 1 1177.319 20.714 A 8.243 8.243 0 0 1 1180.55 22.301 Q 1182.9 24.201 1183.8 27.201 L 1185 27.201 A 13.545 13.545 0 0 1 1187.736 23.4 Q 1190.535 20.735 1194.728 20.438 A 15.19 15.19 0 0 1 1195.8 20.401 Q 1201.4 20.401 1204.45 23.951 A 12.314 12.314 0 0 1 1207.14 29.536 A 17.71 17.71 0 0 1 1207.5 33.201 Z M 1635.9 33.201 L 1635.9 71.401 L 1628.1 71.401 L 1628.1 35.801 A 12.565 12.565 0 0 0 1627.866 33.304 Q 1627.488 31.44 1626.5 30.051 Q 1624.933 27.847 1621.543 27.802 A 10.707 10.707 0 0 0 1621.4 27.801 A 7.201 7.201 0 0 0 1618.666 28.304 A 6.655 6.655 0 0 0 1616.05 30.251 Q 1614 32.701 1614 37.801 L 1614 71.401 L 1606.2 71.401 L 1606.2 35.401 A 9.946 9.946 0 0 0 1605.903 32.909 A 7.44 7.44 0 0 0 1604.4 29.951 A 5.842 5.842 0 0 0 1600.152 27.82 A 7.926 7.926 0 0 0 1599.6 27.801 A 7.938 7.938 0 0 0 1597.179 28.151 A 6.184 6.184 0 0 0 1594.05 30.401 Q 1592.1 33.001 1592.1 37.201 L 1592.1 71.401 L 1584.3 71.401 L 1584.3 21.801 L 1592.1 21.801 L 1592.1 27.201 L 1593.3 27.201 A 12.935 12.935 0 0 1 1594.499 24.749 Q 1595.509 23.162 1596.911 22.179 A 8.144 8.144 0 0 1 1597.1 22.051 A 9.952 9.952 0 0 1 1601.406 20.498 A 12.787 12.787 0 0 1 1603 20.401 A 11.205 11.205 0 0 1 1605.719 20.714 A 8.243 8.243 0 0 1 1608.95 22.301 Q 1611.3 24.201 1612.2 27.201 L 1613.4 27.201 A 13.545 13.545 0 0 1 1616.136 23.4 Q 1618.935 20.735 1623.128 20.438 A 15.19 15.19 0 0 1 1624.2 20.401 Q 1629.8 20.401 1632.85 23.951 A 12.314 12.314 0 0 1 1635.54 29.536 A 17.71 17.71 0 0 1 1635.9 33.201 Z M 1064.7 20.401 L 1036.5 20.401 L 1036.5 13.201 L 1065.5 13.201 Q 1072.905 13.201 1077.719 16.311 A 16.049 16.049 0 0 1 1079.9 18.001 Q 1085.1 22.801 1085.1 32.801 L 1085.1 63.601 A 8.797 8.797 0 0 1 1084.696 66.324 A 7.272 7.272 0 0 1 1082.95 69.201 A 7.22 7.22 0 0 1 1078.256 71.364 A 9.81 9.81 0 0 1 1077.4 71.401 L 1069.4 71.401 A 11.084 11.084 0 0 1 1067.404 71.233 Q 1066.32 71.035 1065.479 70.6 A 4.959 4.959 0 0 1 1064 69.451 Q 1062.3 67.501 1062.3 64.801 L 1061.1 64.801 Q 1059.9 68.601 1057.05 70.701 Q 1054.2 72.801 1049.5 72.801 A 15.896 15.896 0 0 1 1044.504 72.03 A 14.627 14.627 0 0 1 1042.7 71.301 Q 1039.6 69.801 1037.35 67.001 A 19.053 19.053 0 0 1 1035.013 63.235 A 24.823 24.823 0 0 1 1033.8 60.151 A 26.755 26.755 0 0 1 1032.715 55.007 A 34.349 34.349 0 0 1 1032.5 51.101 L 1032.5 49.301 A 33.085 33.085 0 0 1 1032.846 44.41 A 25.451 25.451 0 0 1 1033.8 40.301 A 24.246 24.246 0 0 1 1035.506 36.27 A 19.43 19.43 0 0 1 1037.35 33.451 Q 1039.6 30.601 1042.7 29.101 Q 1045.8 27.601 1049.3 27.601 A 19.404 19.404 0 0 1 1051.95 27.77 Q 1054.661 28.144 1056.35 29.351 A 12.05 12.05 0 0 1 1058.869 31.81 A 16.786 16.786 0 0 1 1060.5 34.401 L 1061.7 34.401 L 1061.7 29.001 L 1069.5 29.001 L 1069.5 61.201 A 4.856 4.856 0 0 0 1069.62 62.333 Q 1069.985 63.848 1071.455 64.134 A 3.902 3.902 0 0 0 1072.2 64.201 L 1074.6 64.201 A 3.467 3.467 0 0 0 1075.717 64.036 Q 1077.262 63.511 1077.299 61.309 A 6.487 6.487 0 0 0 1077.3 61.201 L 1077.3 33.601 Q 1077.3 29.237 1075.925 26.292 A 10.08 10.08 0 0 0 1074.25 23.751 Q 1071.748 21.003 1066.925 20.509 A 21.864 21.864 0 0 0 1064.7 20.401 Z M 1013.9 81.201 L 1013.9 63.801 L 1012.7 63.801 A 16.984 16.984 0 0 1 1009.287 68.302 A 15.314 15.314 0 0 1 1006.15 70.551 Q 1002 72.801 997.1 72.801 A 26.113 26.113 0 0 1 988.809 71.499 A 24.668 24.668 0 0 1 987.7 71.101 Q 983.3 69.401 979.95 66.201 A 21.982 21.982 0 0 1 975.57 60.255 A 26.485 26.485 0 0 1 974.65 58.251 A 25.547 25.547 0 0 1 973.022 52.134 A 33.503 33.503 0 0 1 972.7 47.401 L 972.7 45.801 A 30.87 30.87 0 0 1 973.248 39.862 A 24.492 24.492 0 0 1 974.7 35.051 Q 976.7 30.301 980 27.051 Q 983.3 23.801 987.7 22.101 Q 992.1 20.401 996.9 20.401 A 20.976 20.976 0 0 1 1001.889 20.97 A 16.76 16.76 0 0 1 1006.35 22.751 A 15.996 15.996 0 0 1 1012.234 28.742 A 19.511 19.511 0 0 1 1012.7 29.601 L 1013.9 29.601 L 1013.9 21.801 L 1021.7 21.801 L 1021.7 83.601 A 8.797 8.797 0 0 1 1021.296 86.324 A 7.272 7.272 0 0 1 1019.55 89.201 A 7.22 7.22 0 0 1 1014.856 91.364 A 9.81 9.81 0 0 1 1014 91.401 L 981.7 91.401 L 981.7 84.201 L 1011.2 84.201 A 3.467 3.467 0 0 0 1012.317 84.036 Q 1013.862 83.511 1013.899 81.309 A 6.487 6.487 0 0 0 1013.9 81.201 Z M 1136.3 81.201 L 1136.3 63.801 L 1135.1 63.801 A 16.984 16.984 0 0 1 1131.687 68.302 A 15.314 15.314 0 0 1 1128.55 70.551 Q 1124.4 72.801 1119.5 72.801 A 26.113 26.113 0 0 1 1111.209 71.499 A 24.668 24.668 0 0 1 1110.1 71.101 Q 1105.7 69.401 1102.35 66.201 A 21.982 21.982 0 0 1 1097.97 60.255 A 26.485 26.485 0 0 1 1097.05 58.251 A 25.547 25.547 0 0 1 1095.422 52.134 A 33.503 33.503 0 0 1 1095.1 47.401 L 1095.1 45.801 A 30.87 30.87 0 0 1 1095.648 39.862 A 24.492 24.492 0 0 1 1097.1 35.051 Q 1099.1 30.301 1102.4 27.051 Q 1105.7 23.801 1110.1 22.101 Q 1114.5 20.401 1119.3 20.401 A 20.976 20.976 0 0 1 1124.289 20.97 A 16.76 16.76 0 0 1 1128.75 22.751 A 15.996 15.996 0 0 1 1134.634 28.742 A 19.511 19.511 0 0 1 1135.1 29.601 L 1136.3 29.601 L 1136.3 21.801 L 1144.1 21.801 L 1144.1 83.601 A 8.797 8.797 0 0 1 1143.696 86.324 A 7.272 7.272 0 0 1 1141.95 89.201 A 7.22 7.22 0 0 1 1137.256 91.364 A 9.81 9.81 0 0 1 1136.4 91.401 L 1104.1 91.401 L 1104.1 84.201 L 1133.6 84.201 A 3.467 3.467 0 0 0 1134.717 84.036 Q 1136.262 83.511 1136.299 81.309 A 6.487 6.487 0 0 0 1136.3 81.201 Z M 93.6 47.601 L 93.6 21.801 L 101.4 21.801 L 101.4 71.401 L 93.6 71.401 L 93.6 62.401 L 92.4 62.401 A 22.075 22.075 0 0 1 89.225 67.168 A 18.731 18.731 0 0 1 86.1 70.001 Q 82.2 72.801 76.2 72.801 A 21.758 21.758 0 0 1 71.214 72.247 A 18.847 18.847 0 0 1 68.65 71.451 Q 65.2 70.101 62.75 67.401 Q 60.3 64.701 58.95 60.701 Q 57.6 56.701 57.6 51.401 L 57.6 21.801 L 65.4 21.801 L 65.4 50.401 A 30.189 30.189 0 0 0 65.653 54.456 Q 66.3 59.213 68.6 61.801 Q 71.392 64.942 76.773 65.342 A 21.938 21.938 0 0 0 78.4 65.401 A 16.704 16.704 0 0 0 83.296 64.719 A 12.903 12.903 0 0 0 89.55 60.551 A 16.682 16.682 0 0 0 92.878 53.86 Q 93.6 51.02 93.6 47.601 Z M 127.2 45.601 L 127.2 71.401 L 119.4 71.401 L 119.4 21.801 L 127.2 21.801 L 127.2 30.201 L 128.4 30.201 A 17.593 17.593 0 0 1 132.695 24.325 Q 137.186 20.401 144.4 20.401 A 22.39 22.39 0 0 1 150.358 21.153 A 16.56 16.56 0 0 1 158.1 25.751 A 16.73 16.73 0 0 1 161.761 31.942 Q 163.2 36.116 163.2 41.801 L 163.2 71.401 L 155.4 71.401 L 155.4 43.401 A 27.803 27.803 0 0 0 155.092 39.113 Q 154.738 36.851 153.978 35.041 A 11.775 11.775 0 0 0 151.9 31.701 A 11.529 11.529 0 0 0 144.648 27.95 A 16.419 16.419 0 0 0 142.4 27.801 A 16.704 16.704 0 0 0 137.504 28.483 A 12.903 12.903 0 0 0 131.25 32.651 A 16.682 16.682 0 0 0 127.922 39.342 Q 127.2 42.182 127.2 45.601 Z M 433.2 45.601 L 433.2 71.401 L 425.4 71.401 L 425.4 21.801 L 433.2 21.801 L 433.2 30.201 L 434.4 30.201 A 17.593 17.593 0 0 1 438.695 24.325 Q 443.186 20.401 450.4 20.401 A 22.39 22.39 0 0 1 456.358 21.153 A 16.56 16.56 0 0 1 464.1 25.751 A 16.73 16.73 0 0 1 467.761 31.942 Q 469.2 36.116 469.2 41.801 L 469.2 71.401 L 461.4 71.401 L 461.4 43.401 A 27.803 27.803 0 0 0 461.092 39.113 Q 460.738 36.851 459.978 35.041 A 11.775 11.775 0 0 0 457.9 31.701 A 11.529 11.529 0 0 0 450.648 27.95 A 16.419 16.419 0 0 0 448.4 27.801 A 16.704 16.704 0 0 0 443.504 28.483 A 12.903 12.903 0 0 0 437.25 32.651 A 16.682 16.682 0 0 0 433.922 39.342 Q 433.2 42.182 433.2 45.601 Z M 678 45.601 L 678 71.401 L 670.2 71.401 L 670.2 21.801 L 678 21.801 L 678 30.201 L 679.2 30.201 A 17.593 17.593 0 0 1 683.495 24.325 Q 687.986 20.401 695.2 20.401 A 22.39 22.39 0 0 1 701.158 21.153 A 16.56 16.56 0 0 1 708.9 25.751 A 16.73 16.73 0 0 1 712.561 31.942 Q 714 36.116 714 41.801 L 714 71.401 L 706.2 71.401 L 706.2 43.401 A 27.803 27.803 0 0 0 705.892 39.113 Q 705.538 36.851 704.778 35.041 A 11.775 11.775 0 0 0 702.7 31.701 A 11.529 11.529 0 0 0 695.448 27.95 A 16.419 16.419 0 0 0 693.2 27.801 A 16.704 16.704 0 0 0 688.304 28.483 A 12.903 12.903 0 0 0 682.05 32.651 A 16.682 16.682 0 0 0 678.722 39.342 Q 678 42.182 678 45.601 Z M 219.2 52.001 L 227 53.801 Q 226.2 57.901 224.25 61.401 Q 222.3 64.901 219.3 67.451 A 21.484 21.484 0 0 1 213.284 71.033 A 24.762 24.762 0 0 1 212.3 71.401 A 24.779 24.779 0 0 1 206.806 72.62 A 31.162 31.162 0 0 1 203.4 72.801 Q 198.2 72.801 193.55 71.101 Q 188.9 69.401 185.4 66.151 A 23.245 23.245 0 0 1 180.264 59.105 A 26.979 26.979 0 0 1 179.85 58.201 A 24.103 24.103 0 0 1 178.138 52.126 A 31.73 31.73 0 0 1 177.8 47.401 L 177.8 46.201 A 30.288 30.288 0 0 1 178.379 40.165 A 24.517 24.517 0 0 1 179.85 35.401 A 24.8 24.8 0 0 1 183.354 29.51 A 22.307 22.307 0 0 1 185.4 27.301 Q 188.9 24.001 193.55 22.201 Q 198.2 20.401 203.4 20.401 A 27.671 27.671 0 0 1 209.234 20.997 A 23.868 23.868 0 0 1 212.1 21.801 Q 216.1 23.201 219.15 25.751 Q 222.2 28.301 224.15 31.801 Q 226.1 35.301 226.8 39.401 L 219 41.201 Q 218.7 38.601 217.55 36.151 Q 216.4 33.701 214.45 31.851 A 13.884 13.884 0 0 0 211.087 29.518 A 16.831 16.831 0 0 0 209.7 28.901 A 15.317 15.317 0 0 0 206.471 28.043 Q 204.946 27.803 203.227 27.801 A 24.778 24.778 0 0 0 203.2 27.801 Q 199.6 27.801 196.45 29.151 Q 193.3 30.501 190.9 32.951 A 17.317 17.317 0 0 0 187.345 38.327 A 19.896 19.896 0 0 0 187.15 38.801 A 19.348 19.348 0 0 0 185.847 44.722 A 22.758 22.758 0 0 0 185.8 46.201 L 185.8 47.401 A 22.449 22.449 0 0 0 186.181 51.623 A 17.857 17.857 0 0 0 187.15 54.951 A 16.655 16.655 0 0 0 189.47 59.02 A 14.952 14.952 0 0 0 190.9 60.601 Q 193.3 62.901 196.5 64.151 A 18.51 18.51 0 0 0 202.483 65.381 A 21.37 21.37 0 0 0 203.4 65.401 A 20.189 20.189 0 0 0 206.456 65.181 Q 208.303 64.898 209.85 64.251 Q 212.6 63.101 214.55 61.251 Q 216.5 59.401 217.65 57.001 Q 218.8 54.601 219.2 52.001 Z M 1504.4 52.001 L 1512.2 53.801 Q 1511.4 57.901 1509.45 61.401 Q 1507.5 64.901 1504.5 67.451 A 21.484 21.484 0 0 1 1498.484 71.033 A 24.762 24.762 0 0 1 1497.5 71.401 A 24.779 24.779 0 0 1 1492.006 72.62 A 31.162 31.162 0 0 1 1488.6 72.801 Q 1483.4 72.801 1478.75 71.101 Q 1474.1 69.401 1470.6 66.151 A 23.245 23.245 0 0 1 1465.464 59.105 A 26.979 26.979 0 0 1 1465.05 58.201 A 24.103 24.103 0 0 1 1463.338 52.126 A 31.73 31.73 0 0 1 1463 47.401 L 1463 46.201 A 30.288 30.288 0 0 1 1463.579 40.165 A 24.517 24.517 0 0 1 1465.05 35.401 A 24.8 24.8 0 0 1 1468.554 29.51 A 22.307 22.307 0 0 1 1470.6 27.301 Q 1474.1 24.001 1478.75 22.201 Q 1483.4 20.401 1488.6 20.401 A 27.671 27.671 0 0 1 1494.434 20.997 A 23.868 23.868 0 0 1 1497.3 21.801 Q 1501.3 23.201 1504.35 25.751 Q 1507.4 28.301 1509.35 31.801 Q 1511.3 35.301 1512 39.401 L 1504.2 41.201 Q 1503.9 38.601 1502.75 36.151 Q 1501.6 33.701 1499.65 31.851 A 13.884 13.884 0 0 0 1496.287 29.518 A 16.831 16.831 0 0 0 1494.9 28.901 A 15.317 15.317 0 0 0 1491.671 28.043 Q 1490.146 27.803 1488.427 27.801 A 24.778 24.778 0 0 0 1488.4 27.801 Q 1484.8 27.801 1481.65 29.151 Q 1478.5 30.501 1476.1 32.951 A 17.317 17.317 0 0 0 1472.545 38.327 A 19.896 19.896 0 0 0 1472.35 38.801 A 19.348 19.348 0 0 0 1471.047 44.722 A 22.758 22.758 0 0 0 1471 46.201 L 1471 47.401 A 22.449 22.449 0 0 0 1471.381 51.623 A 17.857 17.857 0 0 0 1472.35 54.951 A 16.655 16.655 0 0 0 1474.67 59.02 A 14.952 14.952 0 0 0 1476.1 60.601 Q 1478.5 62.901 1481.7 64.151 A 18.51 18.51 0 0 0 1487.683 65.381 A 21.37 21.37 0 0 0 1488.6 65.401 A 20.189 20.189 0 0 0 1491.656 65.181 Q 1493.503 64.898 1495.05 64.251 Q 1497.8 63.101 1499.75 61.251 Q 1501.7 59.401 1502.85 57.001 Q 1504 54.601 1504.4 52.001 Z M 853.8 71.401 L 853.8 64.201 L 871.8 64.201 L 871.8 8.601 L 854.4 8.601 L 854.4 1.401 L 879.6 1.401 L 879.6 64.201 L 897.6 64.201 L 897.6 71.401 L 853.8 71.401 Z M 1343.4 71.401 L 1343.4 64.201 L 1361.4 64.201 L 1361.4 8.601 L 1344 8.601 L 1344 1.401 L 1369.2 1.401 L 1369.2 64.201 L 1387.2 64.201 L 1387.2 71.401 L 1343.4 71.401 Z M 240.1 29.001 L 240.1 21.801 L 255.7 21.801 L 255.7 1.401 L 263.5 1.401 L 263.5 21.801 L 282.7 21.801 L 282.7 29.001 L 263.5 29.001 L 263.5 61.201 A 4.856 4.856 0 0 0 263.62 62.333 Q 263.985 63.848 265.455 64.134 A 3.902 3.902 0 0 0 266.2 64.201 L 280.3 64.201 L 280.3 71.401 L 263.4 71.401 Q 260 71.401 257.85 69.201 Q 255.7 67.001 255.7 63.601 L 255.7 29.001 L 240.1 29.001 Z M 729.7 29.001 L 729.7 21.801 L 745.3 21.801 L 745.3 1.401 L 753.1 1.401 L 753.1 21.801 L 772.3 21.801 L 772.3 29.001 L 753.1 29.001 L 753.1 61.201 A 4.856 4.856 0 0 0 753.22 62.333 Q 753.585 63.848 755.055 64.134 A 3.902 3.902 0 0 0 755.8 64.201 L 769.9 64.201 L 769.9 71.401 L 753 71.401 Q 749.6 71.401 747.45 69.201 Q 745.3 67.001 745.3 63.601 L 745.3 29.001 L 729.7 29.001 Z M 798.6 63.801 L 798.6 71.401 L 790.8 71.401 L 790.8 1.401 L 798.6 1.401 L 798.6 29.601 L 799.8 29.601 Q 802.4 25.101 807 22.751 Q 811.6 20.401 817 20.401 Q 821.6 20.401 825.7 22.101 Q 829.8 23.801 832.95 27.001 A 22.056 22.056 0 0 1 836.807 32.376 A 26.951 26.951 0 0 1 837.95 34.901 A 26.147 26.147 0 0 1 839.495 40.94 A 34.248 34.248 0 0 1 839.8 45.601 L 839.8 47.601 A 35.335 35.335 0 0 1 839.404 53.012 A 26.287 26.287 0 0 1 838 58.401 A 24.38 24.38 0 0 1 835.392 63.446 A 20.646 20.646 0 0 1 833.05 66.301 Q 829.9 69.501 825.7 71.151 Q 821.5 72.801 816.8 72.801 Q 814.4 72.801 811.9 72.251 Q 809.4 71.701 807.15 70.551 Q 804.9 69.401 803 67.751 Q 801.1 66.101 799.8 63.801 L 798.6 63.801 Z M 492.6 63.801 L 492.6 91.401 L 484.8 91.401 L 484.8 21.801 L 492.6 21.801 L 492.6 29.601 L 493.8 29.601 Q 496.4 25.101 501 22.751 Q 505.6 20.401 511 20.401 Q 515.6 20.401 519.7 22.101 Q 523.8 23.801 526.95 27.001 A 22.056 22.056 0 0 1 530.807 32.376 A 26.951 26.951 0 0 1 531.95 34.901 A 26.147 26.147 0 0 1 533.495 40.94 A 34.248 34.248 0 0 1 533.8 45.601 L 533.8 47.601 A 35.335 35.335 0 0 1 533.404 53.012 A 26.287 26.287 0 0 1 532 58.401 A 24.38 24.38 0 0 1 529.392 63.446 A 20.646 20.646 0 0 1 527.05 66.301 Q 523.9 69.501 519.7 71.151 Q 515.5 72.801 510.8 72.801 Q 508.4 72.801 505.9 72.251 Q 503.4 71.701 501.15 70.551 Q 498.9 69.401 497 67.751 Q 495.1 66.101 493.8 63.801 L 492.6 63.801 Z M 2.4 29.001 L 2.4 21.801 L 30 21.801 L 30 83.601 A 8.797 8.797 0 0 1 29.596 86.324 A 7.272 7.272 0 0 1 27.85 89.201 A 7.22 7.22 0 0 1 23.156 91.364 A 9.81 9.81 0 0 1 22.3 91.401 L 0 91.401 L 0 84.201 L 19.5 84.201 A 3.467 3.467 0 0 0 20.617 84.036 Q 22.162 83.511 22.199 81.309 A 6.487 6.487 0 0 0 22.2 81.201 L 22.2 29.001 L 2.4 29.001 Z M 304.2 71.401 L 304.2 64.201 L 321.6 64.201 L 321.6 29.001 L 306 29.001 L 306 21.801 L 329.4 21.801 L 329.4 64.201 L 345.6 64.201 L 345.6 71.401 L 304.2 71.401 Z M 610.2 71.401 L 610.2 64.201 L 627.6 64.201 L 627.6 29.001 L 612 29.001 L 612 21.801 L 635.4 21.801 L 635.4 64.201 L 651.6 64.201 L 651.6 71.401 L 610.2 71.401 Z M 1283.4 71.401 L 1283.4 64.201 L 1300.8 64.201 L 1300.8 29.001 L 1285.2 29.001 L 1285.2 21.801 L 1308.6 21.801 L 1308.6 64.201 L 1324.8 64.201 L 1324.8 71.401 L 1283.4 71.401 Z M 1257 63.601 L 1257 63.001 L 1255.8 63.001 Q 1253.4 68.001 1249.15 70.401 Q 1244.9 72.801 1240.2 72.801 Q 1235.3 72.801 1231.1 71.151 Q 1226.9 69.501 1223.75 66.251 A 22.264 22.264 0 0 1 1219.718 60.424 A 26.856 26.856 0 0 1 1218.8 58.301 Q 1217 53.601 1217 47.401 L 1217 45.801 A 35.335 35.335 0 0 1 1217.396 40.39 A 26.287 26.287 0 0 1 1218.8 35.001 A 24.747 24.747 0 0 1 1221.495 29.811 A 21.245 21.245 0 0 1 1223.75 27.051 Q 1226.9 23.801 1231.1 22.101 Q 1235.3 20.401 1240 20.401 A 19.942 19.942 0 0 1 1246.28 21.368 A 18.115 18.115 0 0 1 1249.25 22.651 A 15.195 15.195 0 0 1 1254.753 27.793 A 19.308 19.308 0 0 1 1255.8 29.601 L 1257 29.601 L 1257 21.801 L 1264.8 21.801 L 1264.8 61.201 A 4.856 4.856 0 0 0 1264.92 62.333 Q 1265.285 63.848 1266.755 64.134 A 3.902 3.902 0 0 0 1267.5 64.201 L 1270 64.201 L 1270 71.401 L 1264.7 71.401 Q 1261.3 71.401 1259.15 69.201 Q 1257 67.001 1257 63.601 Z M 411 46.001 L 411 47.201 A 31.867 31.867 0 0 1 410.519 52.867 A 24.098 24.098 0 0 1 408.95 58.151 A 25.448 25.448 0 0 1 405.724 63.68 A 22.302 22.302 0 0 1 403.5 66.151 Q 400.1 69.401 395.55 71.101 Q 391 72.801 386.1 72.801 Q 381.1 72.801 376.6 71.101 Q 372.1 69.401 368.7 66.151 Q 365.3 62.901 363.25 58.151 A 24.557 24.557 0 0 1 361.538 51.999 A 32.678 32.678 0 0 1 361.2 47.201 L 361.2 46.001 Q 361.2 39.901 363.25 35.151 Q 365.3 30.401 368.75 27.101 Q 372.2 23.801 376.7 22.101 Q 381.2 20.401 386.1 20.401 Q 391 20.401 395.5 22.101 Q 400 23.801 403.45 27.101 A 23.861 23.861 0 0 1 408.346 33.844 A 27.91 27.91 0 0 1 408.95 35.151 A 24.726 24.726 0 0 1 410.709 41.594 A 32.182 32.182 0 0 1 411 46.001 Z M 594.6 46.001 L 594.6 47.201 A 31.867 31.867 0 0 1 594.119 52.867 A 24.098 24.098 0 0 1 592.55 58.151 A 25.448 25.448 0 0 1 589.324 63.68 A 22.302 22.302 0 0 1 587.1 66.151 Q 583.7 69.401 579.15 71.101 Q 574.6 72.801 569.7 72.801 Q 564.7 72.801 560.2 71.101 Q 555.7 69.401 552.3 66.151 Q 548.9 62.901 546.85 58.151 A 24.557 24.557 0 0 1 545.138 51.999 A 32.678 32.678 0 0 1 544.8 47.201 L 544.8 46.001 Q 544.8 39.901 546.85 35.151 Q 548.9 30.401 552.35 27.101 Q 555.8 23.801 560.3 22.101 Q 564.8 20.401 569.7 20.401 Q 574.6 20.401 579.1 22.101 Q 583.6 23.801 587.05 27.101 A 23.861 23.861 0 0 1 591.946 33.844 A 27.91 27.91 0 0 1 592.55 35.151 A 24.726 24.726 0 0 1 594.309 41.594 A 32.182 32.182 0 0 1 594.6 46.001 Z M 961.8 46.001 L 961.8 47.201 A 31.867 31.867 0 0 1 961.319 52.867 A 24.098 24.098 0 0 1 959.75 58.151 A 25.448 25.448 0 0 1 956.524 63.68 A 22.302 22.302 0 0 1 954.3 66.151 Q 950.9 69.401 946.35 71.101 Q 941.8 72.801 936.9 72.801 Q 931.9 72.801 927.4 71.101 Q 922.9 69.401 919.5 66.151 Q 916.1 62.901 914.05 58.151 A 24.557 24.557 0 0 1 912.338 51.999 A 32.678 32.678 0 0 1 912 47.201 L 912 46.001 Q 912 39.901 914.05 35.151 Q 916.1 30.401 919.55 27.101 Q 923 23.801 927.5 22.101 Q 932 20.401 936.9 20.401 Q 941.8 20.401 946.3 22.101 Q 950.8 23.801 954.25 27.101 A 23.861 23.861 0 0 1 959.146 33.844 A 27.91 27.91 0 0 1 959.75 35.151 A 24.726 24.726 0 0 1 961.509 41.594 A 32.182 32.182 0 0 1 961.8 46.001 Z M 1573.8 46.001 L 1573.8 47.201 A 31.867 31.867 0 0 1 1573.319 52.867 A 24.098 24.098 0 0 1 1571.75 58.151 A 25.448 25.448 0 0 1 1568.524 63.68 A 22.302 22.302 0 0 1 1566.3 66.151 Q 1562.9 69.401 1558.35 71.101 Q 1553.8 72.801 1548.9 72.801 Q 1543.9 72.801 1539.4 71.101 Q 1534.9 69.401 1531.5 66.151 Q 1528.1 62.901 1526.05 58.151 A 24.557 24.557 0 0 1 1524.338 51.999 A 32.678 32.678 0 0 1 1524 47.201 L 1524 46.001 Q 1524 39.901 1526.05 35.151 Q 1528.1 30.401 1531.55 27.101 Q 1535 23.801 1539.5 22.101 Q 1544 20.401 1548.9 20.401 Q 1553.8 20.401 1558.3 22.101 Q 1562.8 23.801 1566.25 27.101 A 23.861 23.861 0 0 1 1571.146 33.844 A 27.91 27.91 0 0 1 1571.75 35.151 A 24.726 24.726 0 0 1 1573.509 41.594 A 32.182 32.182 0 0 1 1573.8 46.001 Z M 403 47.201 L 403 46.001 A 21.472 21.472 0 0 0 402.492 41.255 A 18.406 18.406 0 0 0 401.7 38.651 Q 400.4 35.301 398.1 32.901 Q 395.8 30.501 392.7 29.151 Q 389.6 27.801 386.1 27.801 Q 382.6 27.801 379.5 29.151 Q 376.4 30.501 374.1 32.901 A 16.9 16.9 0 0 0 370.852 37.803 A 19.693 19.693 0 0 0 370.5 38.651 A 19.331 19.331 0 0 0 369.281 44.041 A 23.214 23.214 0 0 0 369.2 46.001 L 369.2 47.201 A 23.313 23.313 0 0 0 369.562 51.394 A 18.397 18.397 0 0 0 370.5 54.751 Q 371.8 58.101 374.1 60.501 Q 376.4 62.901 379.45 64.151 A 16.948 16.948 0 0 0 384.879 65.364 A 19.961 19.961 0 0 0 386.1 65.401 A 18.152 18.152 0 0 0 390.74 64.823 A 16.121 16.121 0 0 0 392.75 64.151 Q 395.8 62.901 398.1 60.501 A 16.9 16.9 0 0 0 401.348 55.599 A 19.693 19.693 0 0 0 401.7 54.751 A 18.987 18.987 0 0 0 402.817 50.231 A 24.313 24.313 0 0 0 403 47.201 Z M 586.6 47.201 L 586.6 46.001 A 21.472 21.472 0 0 0 586.092 41.255 A 18.406 18.406 0 0 0 585.3 38.651 Q 584 35.301 581.7 32.901 Q 579.4 30.501 576.3 29.151 Q 573.2 27.801 569.7 27.801 Q 566.2 27.801 563.1 29.151 Q 560 30.501 557.7 32.901 A 16.9 16.9 0 0 0 554.452 37.803 A 19.693 19.693 0 0 0 554.1 38.651 A 19.331 19.331 0 0 0 552.881 44.041 A 23.214 23.214 0 0 0 552.8 46.001 L 552.8 47.201 A 23.313 23.313 0 0 0 553.162 51.394 A 18.397 18.397 0 0 0 554.1 54.751 Q 555.4 58.101 557.7 60.501 Q 560 62.901 563.05 64.151 A 16.948 16.948 0 0 0 568.479 65.364 A 19.961 19.961 0 0 0 569.7 65.401 A 18.152 18.152 0 0 0 574.34 64.823 A 16.121 16.121 0 0 0 576.35 64.151 Q 579.4 62.901 581.7 60.501 A 16.9 16.9 0 0 0 584.948 55.599 A 19.693 19.693 0 0 0 585.3 54.751 A 18.987 18.987 0 0 0 586.417 50.231 A 24.313 24.313 0 0 0 586.6 47.201 Z M 953.8 47.201 L 953.8 46.001 A 21.472 21.472 0 0 0 953.292 41.255 A 18.406 18.406 0 0 0 952.5 38.651 Q 951.2 35.301 948.9 32.901 Q 946.6 30.501 943.5 29.151 Q 940.4 27.801 936.9 27.801 Q 933.4 27.801 930.3 29.151 Q 927.2 30.501 924.9 32.901 A 16.9 16.9 0 0 0 921.652 37.803 A 19.693 19.693 0 0 0 921.3 38.651 A 19.331 19.331 0 0 0 920.081 44.041 A 23.214 23.214 0 0 0 920 46.001 L 920 47.201 A 23.313 23.313 0 0 0 920.362 51.394 A 18.397 18.397 0 0 0 921.3 54.751 Q 922.6 58.101 924.9 60.501 Q 927.2 62.901 930.25 64.151 A 16.948 16.948 0 0 0 935.679 65.364 A 19.961 19.961 0 0 0 936.9 65.401 A 18.152 18.152 0 0 0 941.54 64.823 A 16.121 16.121 0 0 0 943.55 64.151 Q 946.6 62.901 948.9 60.501 A 16.9 16.9 0 0 0 952.148 55.599 A 19.693 19.693 0 0 0 952.5 54.751 A 18.987 18.987 0 0 0 953.617 50.231 A 24.313 24.313 0 0 0 953.8 47.201 Z M 1565.8 47.201 L 1565.8 46.001 A 21.472 21.472 0 0 0 1565.292 41.255 A 18.406 18.406 0 0 0 1564.5 38.651 Q 1563.2 35.301 1560.9 32.901 Q 1558.6 30.501 1555.5 29.151 Q 1552.4 27.801 1548.9 27.801 Q 1545.4 27.801 1542.3 29.151 Q 1539.2 30.501 1536.9 32.901 A 16.9 16.9 0 0 0 1533.652 37.803 A 19.693 19.693 0 0 0 1533.3 38.651 A 19.331 19.331 0 0 0 1532.081 44.041 A 23.214 23.214 0 0 0 1532 46.001 L 1532 47.201 A 23.313 23.313 0 0 0 1532.362 51.394 A 18.397 18.397 0 0 0 1533.3 54.751 Q 1534.6 58.101 1536.9 60.501 Q 1539.2 62.901 1542.25 64.151 A 16.948 16.948 0 0 0 1547.679 65.364 A 19.961 19.961 0 0 0 1548.9 65.401 A 18.152 18.152 0 0 0 1553.54 64.823 A 16.121 16.121 0 0 0 1555.55 64.151 Q 1558.6 62.901 1560.9 60.501 A 16.9 16.9 0 0 0 1564.148 55.599 A 19.693 19.693 0 0 0 1564.5 54.751 A 18.987 18.987 0 0 0 1565.617 50.231 A 24.313 24.313 0 0 0 1565.8 47.201 Z M 525.8 47.601 L 525.8 45.601 A 22.102 22.102 0 0 0 525.41 41.366 A 17.953 17.953 0 0 0 524.55 38.351 Q 523.3 35.101 521.05 32.751 Q 518.8 30.401 515.75 29.101 Q 512.7 27.801 509.2 27.801 A 15.927 15.927 0 0 0 503.891 28.675 A 14.987 14.987 0 0 0 502.7 29.151 Q 499.7 30.501 497.45 32.901 A 17.157 17.157 0 0 0 494.421 37.428 A 20.165 20.165 0 0 0 493.9 38.651 A 19.331 19.331 0 0 0 492.681 44.041 A 23.214 23.214 0 0 0 492.6 46.001 L 492.6 47.201 A 22.408 22.408 0 0 0 493.011 51.576 A 18.398 18.398 0 0 0 493.9 54.651 Q 495.2 58.001 497.45 60.401 Q 499.7 62.801 502.7 64.101 A 15.992 15.992 0 0 0 508.548 65.389 A 18.479 18.479 0 0 0 509.2 65.401 A 18.066 18.066 0 0 0 513.466 64.913 A 15.621 15.621 0 0 0 515.8 64.151 Q 518.8 62.901 521.05 60.601 A 15.546 15.546 0 0 0 524.046 56.203 A 18.473 18.473 0 0 0 524.55 55.001 A 19.139 19.139 0 0 0 525.639 50.444 A 24.296 24.296 0 0 0 525.8 47.601 Z M 831.8 47.601 L 831.8 45.601 A 22.102 22.102 0 0 0 831.41 41.366 A 17.953 17.953 0 0 0 830.55 38.351 Q 829.3 35.101 827.05 32.751 Q 824.8 30.401 821.75 29.101 Q 818.7 27.801 815.2 27.801 A 15.927 15.927 0 0 0 809.891 28.675 A 14.987 14.987 0 0 0 808.7 29.151 Q 805.7 30.501 803.45 32.901 A 17.157 17.157 0 0 0 800.421 37.428 A 20.165 20.165 0 0 0 799.9 38.651 A 19.331 19.331 0 0 0 798.681 44.041 A 23.214 23.214 0 0 0 798.6 46.001 L 798.6 47.201 A 22.408 22.408 0 0 0 799.011 51.576 A 18.398 18.398 0 0 0 799.9 54.651 Q 801.2 58.001 803.45 60.401 Q 805.7 62.801 808.7 64.101 A 15.992 15.992 0 0 0 814.548 65.389 A 18.479 18.479 0 0 0 815.2 65.401 A 18.066 18.066 0 0 0 819.466 64.913 A 15.621 15.621 0 0 0 821.8 64.151 Q 824.8 62.901 827.05 60.601 A 15.546 15.546 0 0 0 830.046 56.203 A 18.473 18.473 0 0 0 830.55 55.001 A 19.139 19.139 0 0 0 831.639 50.444 A 24.296 24.296 0 0 0 831.8 47.601 Z M 1013.9 47.201 L 1013.9 46.001 A 21.472 21.472 0 0 0 1013.392 41.255 A 18.406 18.406 0 0 0 1012.6 38.651 Q 1011.3 35.301 1009.05 32.901 Q 1006.8 30.501 1003.75 29.151 Q 1000.7 27.801 997.3 27.801 Q 993.8 27.801 990.75 29.101 Q 987.7 30.401 985.45 32.801 A 16.874 16.874 0 0 0 982.196 37.884 A 19.483 19.483 0 0 0 981.95 38.501 A 19.277 19.277 0 0 0 980.822 43.369 A 23.658 23.658 0 0 0 980.7 45.801 L 980.7 47.401 Q 980.7 51.601 981.95 54.901 A 17.146 17.146 0 0 0 984.202 59.072 A 15.443 15.443 0 0 0 985.45 60.551 Q 987.7 62.901 990.7 64.151 A 16.395 16.395 0 0 0 995.727 65.339 A 19.655 19.655 0 0 0 997.3 65.401 A 16.558 16.558 0 0 0 1002.366 64.639 A 15.334 15.334 0 0 0 1003.8 64.101 Q 1006.8 62.801 1009.05 60.401 A 17.157 17.157 0 0 0 1012.079 55.874 A 20.165 20.165 0 0 0 1012.6 54.651 A 19.19 19.19 0 0 0 1013.771 49.705 A 23.8 23.8 0 0 0 1013.9 47.201 Z M 1136.3 47.201 L 1136.3 46.001 A 21.472 21.472 0 0 0 1135.792 41.255 A 18.406 18.406 0 0 0 1135 38.651 Q 1133.7 35.301 1131.45 32.901 Q 1129.2 30.501 1126.15 29.151 Q 1123.1 27.801 1119.7 27.801 Q 1116.2 27.801 1113.15 29.101 Q 1110.1 30.401 1107.85 32.801 A 16.874 16.874 0 0 0 1104.596 37.884 A 19.483 19.483 0 0 0 1104.35 38.501 A 19.277 19.277 0 0 0 1103.222 43.369 A 23.658 23.658 0 0 0 1103.1 45.801 L 1103.1 47.401 Q 1103.1 51.601 1104.35 54.901 A 17.146 17.146 0 0 0 1106.602 59.072 A 15.443 15.443 0 0 0 1107.85 60.551 Q 1110.1 62.901 1113.1 64.151 A 16.395 16.395 0 0 0 1118.127 65.339 A 19.655 19.655 0 0 0 1119.7 65.401 A 16.558 16.558 0 0 0 1124.766 64.639 A 15.334 15.334 0 0 0 1126.2 64.101 Q 1129.2 62.801 1131.45 60.401 A 17.157 17.157 0 0 0 1134.479 55.874 A 20.165 20.165 0 0 0 1135 54.651 A 19.19 19.19 0 0 0 1136.171 49.705 A 23.8 23.8 0 0 0 1136.3 47.201 Z M 1257 47.201 L 1257 46.001 A 23.265 23.265 0 0 0 1256.554 41.367 A 19.603 19.603 0 0 0 1255.8 38.651 A 18.195 18.195 0 0 0 1253.873 34.749 A 15.823 15.823 0 0 0 1252.45 32.901 Q 1250.3 30.501 1247.35 29.151 Q 1244.4 27.801 1241 27.801 A 16.398 16.398 0 0 0 1236.859 28.309 A 14.325 14.325 0 0 0 1234.6 29.101 Q 1231.7 30.401 1229.55 32.751 Q 1227.4 35.101 1226.2 38.451 Q 1225 41.801 1225 45.801 L 1225 47.401 A 26.097 26.097 0 0 0 1225.514 52.745 Q 1226.512 57.515 1229.45 60.651 A 14.809 14.809 0 0 0 1239.639 65.356 A 20.123 20.123 0 0 0 1241 65.401 A 16.467 16.467 0 0 0 1245.553 64.786 A 14.802 14.802 0 0 0 1247.45 64.101 Q 1250.4 62.801 1252.5 60.401 Q 1254.6 58.001 1255.8 54.651 A 20.41 20.41 0 0 0 1256.858 49.931 A 25.572 25.572 0 0 0 1257 47.201 Z M 1061.7 51.101 L 1061.7 49.301 Q 1061.7 46.501 1061.15 43.901 A 15.232 15.232 0 0 0 1060.25 41.025 A 12.775 12.775 0 0 0 1059.35 39.301 Q 1058.1 37.301 1056.05 36.151 A 8.592 8.592 0 0 0 1053.606 35.254 Q 1052.558 35.033 1051.349 35.005 A 15.223 15.223 0 0 0 1051 35.001 A 9.779 9.779 0 0 0 1048.208 35.389 A 8.611 8.611 0 0 0 1046.5 36.101 Q 1044.5 37.201 1043.15 39.151 A 14.472 14.472 0 0 0 1041.607 42.065 A 17.853 17.853 0 0 0 1041.05 43.701 Q 1040.3 46.301 1040.3 49.301 L 1040.3 51.101 Q 1040.3 56.509 1042.363 60.222 A 13.421 13.421 0 0 0 1043.1 61.401 A 8.898 8.898 0 0 0 1049.537 65.313 A 11.815 11.815 0 0 0 1051 65.401 A 13.592 13.592 0 0 0 1053.24 65.226 Q 1054.817 64.963 1056.05 64.301 Q 1058.1 63.201 1059.35 61.251 A 12.612 12.612 0 0 0 1060.689 58.412 A 15.727 15.727 0 0 0 1061.15 56.701 A 25.507 25.507 0 0 0 1061.644 52.982 A 30.72 30.72 0 0 0 1061.7 51.101 Z M 20.986 2.115 A 6.737 6.737 0 0 0 19 7.001 A 8.15 8.15 0 0 0 19.001 7.091 A 6.736 6.736 0 0 0 21.05 11.951 A 8.142 8.142 0 0 0 21.114 12.014 A 6.737 6.737 0 0 0 26 14.001 A 8.15 8.15 0 0 0 26.09 14 A 6.736 6.736 0 0 0 30.95 11.951 A 8.142 8.142 0 0 0 31.014 11.887 A 6.737 6.737 0 0 0 33 7.001 A 8.15 8.15 0 0 0 32.999 6.91 A 6.736 6.736 0 0 0 30.95 2.051 A 8.142 8.142 0 0 0 30.886 1.987 A 6.737 6.737 0 0 0 26 0.001 A 8.15 8.15 0 0 0 25.91 0.001 A 6.736 6.736 0 0 0 21.05 2.051 A 8.142 8.142 0 0 0 20.986 2.115 Z M 320.386 2.115 A 6.737 6.737 0 0 0 318.4 7.001 A 8.15 8.15 0 0 0 318.401 7.091 A 6.736 6.736 0 0 0 320.45 11.951 A 8.142 8.142 0 0 0 320.514 12.014 A 6.737 6.737 0 0 0 325.4 14.001 A 8.15 8.15 0 0 0 325.49 14 A 6.736 6.736 0 0 0 330.35 11.951 A 8.142 8.142 0 0 0 330.414 11.887 A 6.737 6.737 0 0 0 332.4 7.001 A 8.15 8.15 0 0 0 332.399 6.91 A 6.736 6.736 0 0 0 330.35 2.051 A 8.142 8.142 0 0 0 330.286 1.987 A 6.737 6.737 0 0 0 325.4 0.001 A 8.15 8.15 0 0 0 325.31 0.001 A 6.736 6.736 0 0 0 320.45 2.051 A 8.142 8.142 0 0 0 320.386 2.115 Z M 626.386 2.115 A 6.737 6.737 0 0 0 624.4 7.001 A 8.15 8.15 0 0 0 624.401 7.091 A 6.736 6.736 0 0 0 626.45 11.951 A 8.142 8.142 0 0 0 626.514 12.014 A 6.737 6.737 0 0 0 631.4 14.001 A 8.15 8.15 0 0 0 631.49 14 A 6.736 6.736 0 0 0 636.35 11.951 A 8.142 8.142 0 0 0 636.414 11.887 A 6.737 6.737 0 0 0 638.4 7.001 A 8.15 8.15 0 0 0 638.399 6.91 A 6.736 6.736 0 0 0 636.35 2.051 A 8.142 8.142 0 0 0 636.286 1.987 A 6.737 6.737 0 0 0 631.4 0.001 A 8.15 8.15 0 0 0 631.31 0.001 A 6.736 6.736 0 0 0 626.45 2.051 A 8.142 8.142 0 0 0 626.386 2.115 Z M 1299.586 2.115 A 6.737 6.737 0 0 0 1297.6 7.001 A 8.15 8.15 0 0 0 1297.601 7.091 A 6.736 6.736 0 0 0 1299.65 11.951 A 8.142 8.142 0 0 0 1299.714 12.014 A 6.737 6.737 0 0 0 1304.6 14.001 A 8.15 8.15 0 0 0 1304.69 14 A 6.736 6.736 0 0 0 1309.55 11.951 A 8.142 8.142 0 0 0 1309.614 11.887 A 6.737 6.737 0 0 0 1311.6 7.001 A 8.15 8.15 0 0 0 1311.599 6.91 A 6.736 6.736 0 0 0 1309.55 2.051 A 8.142 8.142 0 0 0 1309.486 1.987 A 6.737 6.737 0 0 0 1304.6 0.001 A 8.15 8.15 0 0 0 1304.51 0.001 A 6.736 6.736 0 0 0 1299.65 2.051 A 8.142 8.142 0 0 0 1299.586 2.115 Z M 1421.486 60.915 A 6.737 6.737 0 0 0 1419.5 65.801 A 8.15 8.15 0 0 0 1419.501 65.891 A 6.736 6.736 0 0 0 1421.55 70.751 A 8.142 8.142 0 0 0 1421.614 70.814 A 6.737 6.737 0 0 0 1426.5 72.801 A 8.15 8.15 0 0 0 1426.59 72.8 A 6.736 6.736 0 0 0 1431.45 70.751 A 8.142 8.142 0 0 0 1431.514 70.687 A 6.737 6.737 0 0 0 1433.5 65.801 A 8.15 8.15 0 0 0 1433.499 65.71 A 6.736 6.736 0 0 0 1431.45 60.851 A 8.142 8.142 0 0 0 1431.386 60.787 A 6.737 6.737 0 0 0 1426.5 58.801 A 8.15 8.15 0 0 0 1426.41 58.801 A 6.736 6.736 0 0 0 1421.55 60.851 A 8.142 8.142 0 0 0 1421.486 60.915 Z" vector-effect="non-scaling-stroke"/></g></svg>